<svg width="84" height="68" viewBox="0 0 84 68" fill="#eee" xmlns="http://www.w3.org/2000/svg">
<path fill-rule="evenodd" clip-rule="evenodd" d="M60.2623 57.4108C60.1903 61.8285 63.7134 65.468 68.1309 65.54C72.5486 65.6119 76.1882 62.0889 76.2602 57.6712L77.0414 9.67761C77.1124 5.31891 73.6835 1.71777 69.3492 1.55323C68.6036 1.35128 67.8211 1.2377 67.0132 1.22455L66.0134 1.20827C60.7674 1.12287 56.4456 5.30635 56.3602 10.5524C56.3036 14.0327 58.1258 17.1064 60.8906 18.806L60.2623 57.4108Z" fill="black"/>
<path fill-rule="evenodd" clip-rule="evenodd" d="M17.0117 10.0033C17.0126 5.58506 13.4317 2.00259 9.01339 2.00167C4.59511 2.00075 1.01264 5.58172 1.01172 10L1.00169 58C1.00165 58.161 1.00637 58.3208 1.01572 58.4794L1.01456 64.0171C1.01421 65.6739 2.35708 67.0174 4.01393 67.0177L17.9833 67.0206C19.6402 67.021 20.9836 65.6781 20.9839 64.0213L20.9866 51.0213C20.987 49.3644 19.6441 48.021 17.9873 48.0206L17.0038 48.0204L17.0117 10.0033Z" fill="black"/>
<rect x="30" y="13" width="17" height="16" fill="#D9D9D9"/>
<rect x="30" y="39" width="17" height="16" fill="#D9D9D9"/>
</svg>
